<svg width="19" height="16" viewBox="0 0 19 16" fill="none" xmlns="http://www.w3.org/2000/svg">
<path d="M18.125 10.9466C18.125 11.1953 18.0262 11.4337 17.8504 11.6096C17.6746 11.7854 17.4361 11.8841 17.1875 11.8841H14.7398L16.1195 14.2193C16.1839 14.3253 16.2266 14.4431 16.2451 14.5657C16.2636 14.6884 16.2576 14.8135 16.2275 14.9338C16.1973 15.0541 16.1435 15.1673 16.0693 15.2667C15.9951 15.3661 15.9019 15.4498 15.7951 15.5129C15.6883 15.576 15.5701 15.6173 15.4472 15.6343C15.3243 15.6514 15.1993 15.644 15.0794 15.6124C14.9594 15.5808 14.8469 15.5257 14.7484 15.4503C14.6499 15.3749 14.5673 15.2807 14.5055 15.1732L10.0703 7.66539C9.95088 7.45171 9.91976 7.1998 9.9836 6.96348C10.0474 6.72717 10.2012 6.52519 10.412 6.40073C10.6227 6.27626 10.8738 6.23917 11.1116 6.29738C11.3494 6.35559 11.5549 6.5045 11.6844 6.71226L13.6312 10.0091H17.1875C17.4361 10.0091 17.6746 10.1079 17.8504 10.2837C18.0262 10.4595 18.125 10.698 18.125 10.9466ZM9.46484 10.0091H6.67109L11.7445 1.42398C11.8089 1.31795 11.8516 1.20019 11.8701 1.07753C11.8886 0.954879 11.8826 0.829767 11.8525 0.709448C11.8223 0.589128 11.7685 0.475993 11.6943 0.376598C11.6201 0.277203 11.5269 0.193525 11.4201 0.130412C11.3133 0.0672998 11.1951 0.0260076 11.0722 0.00892854C10.9493 -0.00815053 10.8243 -0.000676822 10.7044 0.0309165C10.5844 0.0625099 10.4719 0.117595 10.3734 0.192979C10.2749 0.268363 10.1923 0.362548 10.1305 0.470076L9.0625 2.27476L7.99453 0.470076C7.93268 0.362548 7.85011 0.268363 7.7516 0.192979C7.65309 0.117595 7.5406 0.0625099 7.42064 0.0309165C7.30069 -0.000676822 7.17565 -0.00815053 7.05279 0.00892854C6.92993 0.0260076 6.81167 0.0672998 6.70488 0.130412C6.59809 0.193525 6.50489 0.277203 6.43067 0.376598C6.35646 0.475993 6.3027 0.589128 6.27253 0.709448C6.24235 0.829767 6.23636 0.954879 6.25489 1.07753C6.27341 1.20019 6.3161 1.31795 6.38047 1.42398L7.97344 4.12008L4.49375 10.0091H0.9375C0.68886 10.0091 0.450403 10.1079 0.274587 10.2837C0.0987721 10.4595 0 10.698 0 10.9466C0 11.1953 0.0987721 11.4337 0.274587 11.6096C0.450403 11.7854 0.68886 11.8841 0.9375 11.8841H9.46484C9.71348 11.8841 9.95194 11.7854 10.1278 11.6096C10.3036 11.4337 10.4023 11.1953 10.4023 10.9466C10.4023 10.698 10.3036 10.4595 10.1278 10.2837C9.95194 10.1079 9.71348 10.0091 9.46484 10.0091ZM3.65859 13.2646C3.44463 13.1382 3.18925 13.102 2.94856 13.1638C2.70787 13.2256 2.50157 13.3804 2.375 13.5943L2.00547 14.2193C1.9411 14.3253 1.89841 14.4431 1.87989 14.5657C1.86136 14.6884 1.86735 14.8135 1.89753 14.9338C1.9277 15.0541 1.98146 15.1673 2.05567 15.2667C2.12989 15.3661 2.22309 15.4498 2.32988 15.5129C2.43667 15.576 2.55493 15.6173 2.67779 15.6343C2.80065 15.6514 2.92569 15.644 3.04564 15.6124C3.1656 15.5808 3.27809 15.5257 3.3766 15.4503C3.47511 15.3749 3.55768 15.2807 3.61953 15.1732L3.98906 14.5482C4.11538 14.3341 4.15153 14.0787 4.08956 13.838C4.02759 13.5973 3.87258 13.391 3.65859 13.2646Z" fill="#5144EA"/>
</svg>
