<svg width="12" height="12" viewBox="0 0 12 12" fill="none" xmlns="http://www.w3.org/2000/svg">
<path d="M11.375 5.68685C11.3732 7.0769 10.8632 8.41832 9.94101 9.45845C9.01884 10.4986 7.74816 11.1656 6.36833 11.3339C6.33761 11.3374 6.3065 11.3343 6.27705 11.3249C6.2476 11.3154 6.22048 11.2999 6.19749 11.2792C6.17449 11.2585 6.15614 11.2332 6.14364 11.2049C6.13114 11.1767 6.12478 11.146 6.12498 11.1151V6.99935H7.43748C7.49745 6.99948 7.55681 6.98728 7.61187 6.9635C7.66694 6.93972 7.71652 6.90488 7.75755 6.86113C7.79858 6.81739 7.83017 6.76567 7.85038 6.7092C7.87058 6.65273 7.87895 6.59271 7.87498 6.53286C7.86531 6.42036 7.81341 6.31569 7.72971 6.2399C7.646 6.16411 7.53671 6.12283 7.4238 6.12435H6.12498V4.81185C6.12498 4.57978 6.21716 4.35722 6.38126 4.19313C6.54535 4.02903 6.76791 3.93685 6.99998 3.93685H7.87498C7.93495 3.93698 7.99431 3.92478 8.04937 3.901C8.10444 3.87722 8.15402 3.84238 8.19505 3.79863C8.23608 3.75489 8.26767 3.70317 8.28788 3.6467C8.30807 3.59023 8.31645 3.53021 8.31248 3.47036C8.3028 3.35767 8.25074 3.25284 8.16681 3.17702C8.08287 3.10121 7.9733 3.06005 7.86021 3.06185H6.99998C6.53585 3.06185 6.09073 3.24622 5.76254 3.57441C5.43435 3.9026 5.24998 4.34772 5.24998 4.81185V6.12435H3.93747C3.8775 6.12421 3.81814 6.13642 3.76308 6.16019C3.70801 6.18397 3.65843 6.21881 3.6174 6.26256C3.57637 6.3063 3.54478 6.35802 3.52457 6.41449C3.50437 6.47096 3.496 6.53099 3.49998 6.59083C3.50965 6.70352 3.56171 6.80835 3.64564 6.88417C3.72958 6.95998 3.83915 7.00114 3.95224 6.99935H5.24998V11.1162C5.25016 11.1471 5.24381 11.1776 5.23135 11.2059C5.21888 11.2341 5.20058 11.2594 5.17765 11.2801C5.15471 11.3007 5.12766 11.3163 5.09828 11.3258C5.0689 11.3352 5.03784 11.3384 5.00716 11.335C3.5904 11.1624 2.29005 10.4643 1.36348 9.37873C0.43692 8.29316 -0.0483227 6.89929 0.00380328 5.47302C0.113178 2.51989 2.50521 0.119111 5.46052 0.00426715C6.22565 -0.0253702 6.98889 0.0996153 7.7046 0.371748C8.42032 0.64388 9.07379 1.05757 9.62594 1.58807C10.1781 2.11857 10.6176 2.75498 10.9181 3.45925C11.2186 4.16351 11.374 4.92115 11.375 5.68685Z" fill="#696974"/>
</svg>
