<svg width="17" height="19" viewBox="0 0 17 19" fill="none" xmlns="http://www.w3.org/2000/svg">
<path d="M15.4524 7.71072L2.34377 0.206816C2.1041 0.0704793 1.83294 -0.000815236 1.55721 7.03288e-06C1.28147 0.000829301 1.01075 0.0737398 0.771894 0.211504C0.536263 0.346251 0.340639 0.541154 0.205022 0.776287C0.0694056 1.01142 -0.00133962 1.27835 1.92119e-05 1.54978V16.5748C-0.00110433 16.8465 0.0699943 17.1135 0.206035 17.3487C0.342075 17.5838 0.53817 17.7786 0.774238 17.9131C1.01304 18.051 1.28379 18.124 1.55955 18.1248C1.83532 18.1256 2.10649 18.0542 2.34611 17.9178L15.4524 10.4178C15.694 10.2844 15.8955 10.0886 16.0358 9.85092C16.1761 9.61321 16.2502 9.34223 16.2502 9.06619C16.2502 8.79016 16.1761 8.51917 16.0358 8.28146C15.8955 8.04375 15.694 7.84801 15.4524 7.71463V7.71072ZM1.87502 14.9217V3.20291L7.73439 9.06228L1.87502 14.9217ZM9.06252 10.3904L10.0313 11.3592L5.50002 13.9529L9.06252 10.3904ZM5.5008 4.174L10.0321 6.76775L9.06252 7.73416L5.5008 4.174ZM11.7188 10.3904L10.3906 9.06228L11.7188 7.73416L14.0406 9.06228L11.7188 10.3904Z" fill="#5144EA"/>
</svg>
