<svg width="12" height="12" viewBox="0 0 12 12" fill="none" xmlns="http://www.w3.org/2000/svg">
<path d="M8.3125 0H3.0625C2.25054 0.000868561 1.47209 0.323803 0.897945 0.897945C0.323803 1.47209 0.000868561 2.25054 0 3.0625V8.3125C0.000868561 9.12446 0.323803 9.90291 0.897945 10.4771C1.47209 11.0512 2.25054 11.3741 3.0625 11.375H8.3125C9.12446 11.3741 9.90291 11.0512 10.4771 10.4771C11.0512 9.90291 11.3741 9.12446 11.375 8.3125V3.0625C11.3741 2.25054 11.0512 1.47209 10.4771 0.897945C9.90291 0.323803 9.12446 0.000868561 8.3125 0ZM5.6875 8.3125C5.16832 8.3125 4.66081 8.15855 4.22913 7.87011C3.79745 7.58167 3.461 7.1717 3.26232 6.69204C3.06364 6.21239 3.01165 5.68459 3.11294 5.17539C3.21423 4.66619 3.46423 4.19846 3.83134 3.83134C4.19846 3.46423 4.66619 3.21423 5.17539 3.11294C5.68459 3.01165 6.21239 3.06364 6.69204 3.26232C7.1717 3.461 7.58167 3.79745 7.87011 4.22913C8.15855 4.66081 8.3125 5.16832 8.3125 5.6875C8.31178 6.38347 8.03498 7.05073 7.54286 7.54286C7.05073 8.03498 6.38347 8.31178 5.6875 8.3125ZM8.96875 3.0625C8.83896 3.0625 8.71208 3.02401 8.60416 2.9519C8.49624 2.87979 8.41212 2.7773 8.36245 2.65739C8.31278 2.53747 8.29979 2.40552 8.32511 2.27822C8.35043 2.15092 8.41293 2.03399 8.50471 1.94221C8.59649 1.85043 8.71342 1.78793 8.84072 1.76261C8.96802 1.73729 9.09997 1.75028 9.21989 1.79995C9.3398 1.84962 9.44229 1.93374 9.5144 2.04166C9.58651 2.14958 9.625 2.27646 9.625 2.40625C9.625 2.5803 9.55586 2.74722 9.43279 2.87029C9.30972 2.99336 9.1428 3.0625 8.96875 3.0625ZM7.4375 5.6875C7.4375 6.03362 7.33486 6.37196 7.14257 6.65975C6.95028 6.94753 6.67697 7.17184 6.3572 7.30429C6.03743 7.43674 5.68556 7.4714 5.34609 7.40387C5.00663 7.33635 4.69481 7.16968 4.45006 6.92494C4.20532 6.68019 4.03865 6.36837 3.97113 6.02891C3.9036 5.68944 3.93826 5.33757 4.07071 5.0178C4.20316 4.69803 4.42747 4.42472 4.71525 4.23243C5.00304 4.04014 5.34138 3.9375 5.6875 3.9375C6.15163 3.9375 6.59675 4.12187 6.92494 4.45006C7.25313 4.77825 7.4375 5.22337 7.4375 5.6875Z" fill="#696974"/>
</svg>
