<svg width="12" height="12" viewBox="0 0 12 12" fill="none" xmlns="http://www.w3.org/2000/svg">
<path d="M10.5 0H0.875C0.642936 0 0.420376 0.0921872 0.256282 0.256282C0.0921872 0.420376 0 0.642936 0 0.875V10.5C0 10.7321 0.0921872 10.9546 0.256282 11.1187C0.420376 11.2828 0.642936 11.375 0.875 11.375H10.5C10.7321 11.375 10.9546 11.2828 11.1187 11.1187C11.2828 10.9546 11.375 10.7321 11.375 10.5V0.875C11.375 0.642936 11.2828 0.420376 11.1187 0.256282C10.9546 0.0921872 10.7321 0 10.5 0ZM3.9375 8.3125C3.9375 8.42853 3.89141 8.53981 3.80936 8.62186C3.72731 8.70391 3.61603 8.75 3.5 8.75C3.38397 8.75 3.27269 8.70391 3.19064 8.62186C3.10859 8.53981 3.0625 8.42853 3.0625 8.3125V4.8125C3.0625 4.69647 3.10859 4.58519 3.19064 4.50314C3.27269 4.42109 3.38397 4.375 3.5 4.375C3.61603 4.375 3.72731 4.42109 3.80936 4.50314C3.89141 4.58519 3.9375 4.69647 3.9375 4.8125V8.3125ZM3.5 3.9375C3.37021 3.9375 3.24333 3.89901 3.13541 3.8269C3.02749 3.75479 2.94337 3.6523 2.8937 3.53239C2.84403 3.41247 2.83104 3.28052 2.85636 3.15322C2.88168 3.02592 2.94418 2.90899 3.03596 2.81721C3.12774 2.72543 3.24467 2.66293 3.37197 2.63761C3.49927 2.61229 3.63122 2.62528 3.75114 2.67495C3.87105 2.72462 3.97354 2.80874 4.04565 2.91666C4.11776 3.02458 4.15625 3.15146 4.15625 3.28125C4.15625 3.4553 4.08711 3.62222 3.96404 3.74529C3.84097 3.86836 3.67405 3.9375 3.5 3.9375ZM8.75 8.3125C8.75 8.42853 8.70391 8.53981 8.62186 8.62186C8.53981 8.70391 8.42853 8.75 8.3125 8.75C8.19647 8.75 8.08519 8.70391 8.00314 8.62186C7.92109 8.53981 7.875 8.42853 7.875 8.3125V6.34375C7.875 6.05367 7.75977 5.77547 7.55465 5.57035C7.34953 5.36523 7.07133 5.25 6.78125 5.25C6.49117 5.25 6.21297 5.36523 6.00785 5.57035C5.80273 5.77547 5.6875 6.05367 5.6875 6.34375V8.3125C5.6875 8.42853 5.64141 8.53981 5.55936 8.62186C5.47731 8.70391 5.36603 8.75 5.25 8.75C5.13397 8.75 5.02269 8.70391 4.94064 8.62186C4.85859 8.53981 4.8125 8.42853 4.8125 8.3125V4.8125C4.81304 4.70534 4.8529 4.6021 4.92451 4.52237C4.99612 4.44265 5.0945 4.39197 5.20099 4.37997C5.30748 4.36797 5.41467 4.39546 5.50223 4.45725C5.58979 4.51903 5.65163 4.6108 5.67602 4.71516C5.97198 4.51438 6.31704 4.39802 6.67414 4.37857C7.03125 4.35911 7.38691 4.43729 7.70293 4.60472C8.01895 4.77215 8.2834 5.0225 8.46787 5.32888C8.65235 5.63527 8.74988 5.98612 8.75 6.34375V8.3125Z" fill="#696974"/>
</svg>
