<svg width="12" height="12" viewBox="0 0 12 12" fill="none" xmlns="http://www.w3.org/2000/svg">
<path d="M11.375 3.5V5.6875C11.375 5.80353 11.3289 5.91481 11.2469 5.99686C11.1648 6.07891 11.0535 6.125 10.9375 6.125C10.0236 6.12712 9.12278 5.90737 8.3125 5.48461V7.65625C8.3125 8.75856 7.87461 9.81571 7.09516 10.5952C6.31571 11.3746 5.25856 11.8125 4.15625 11.8125C3.05394 11.8125 1.99679 11.3746 1.21734 10.5952C0.437889 9.81571 0 8.75856 0 7.65625C0 5.63828 1.47164 3.85438 3.42344 3.50656C3.4864 3.49537 3.55106 3.49812 3.61284 3.51461C3.67463 3.53111 3.73205 3.56095 3.78106 3.60203C3.83007 3.64312 3.86948 3.69445 3.89651 3.75241C3.92353 3.81037 3.93753 3.87355 3.9375 3.9375V6.27211C3.93753 6.35491 3.91406 6.43602 3.86982 6.50601C3.82558 6.576 3.76238 6.632 3.68758 6.6675C3.51074 6.75137 3.35964 6.88115 3.25005 7.0433C3.14046 7.20546 3.07638 7.39405 3.06451 7.58941C3.05264 7.78477 3.09341 7.97973 3.18256 8.15397C3.27171 8.3282 3.40598 8.47532 3.57137 8.57998C3.73675 8.68464 3.92719 8.743 4.12282 8.74899C4.31844 8.75497 4.51209 8.70835 4.68356 8.61399C4.85503 8.51964 4.99804 8.381 5.09767 8.21254C5.19731 8.04408 5.24991 7.85197 5.25 7.65625V0.4375C5.25 0.321468 5.29609 0.210188 5.37814 0.128141C5.46019 0.0460936 5.57147 0 5.6875 0H7.875C7.99103 0 8.10231 0.0460936 8.18436 0.128141C8.26641 0.210188 8.3125 0.321468 8.3125 0.4375C8.31322 1.13347 8.59002 1.80073 9.08214 2.29286C9.57427 2.78498 10.2415 3.06178 10.9375 3.0625C11.0535 3.0625 11.1648 3.10859 11.2469 3.19064C11.3289 3.27269 11.375 3.38397 11.375 3.5Z" fill="#696974"/>
</svg>
