<svg width="10" height="11" viewBox="0 0 10 11" fill="none" xmlns="http://www.w3.org/2000/svg">
<path d="M9.57053 10.273C9.53286 10.3417 9.47746 10.3989 9.41013 10.4388C9.3428 10.4788 9.26599 10.4999 9.18771 10.5H6.56271C6.48908 10.5 6.41665 10.4814 6.35212 10.4459C6.28759 10.4104 6.23306 10.3593 6.19357 10.2971L3.97928 6.81734L0.761463 10.3567C0.683021 10.441 0.574527 10.4909 0.459504 10.4957C0.344481 10.5005 0.232198 10.4598 0.147001 10.3824C0.061803 10.305 0.0105569 10.1971 0.00437238 10.0821C-0.0018121 9.96716 0.0375637 9.8544 0.113963 9.76828L3.49201 6.04953L0.0685722 0.672656C0.026409 0.606508 0.00280614 0.53024 0.000235107 0.45184C-0.00233593 0.373439 0.0162194 0.295788 0.0539582 0.22702C0.091697 0.158251 0.147231 0.100894 0.214745 0.0609546C0.282259 0.0210149 0.35927 -3.80972e-05 0.437713 5.17535e-08H3.06271C3.13634 2.28212e-05 3.20878 0.0186294 3.27331 0.0540957C3.33784 0.089562 3.39237 0.140741 3.43185 0.202891L5.64615 3.68266L8.86396 0.143281C8.9424 0.0590181 9.0509 0.00906908 9.16592 0.00426333C9.28094 -0.000542412 9.39323 0.0401825 9.47842 0.117609C9.56362 0.195035 9.61487 0.302922 9.62105 0.417879C9.62724 0.532837 9.58786 0.645599 9.51146 0.731719L6.13342 4.44773L9.55685 9.82789C9.59878 9.89407 9.62217 9.97029 9.62457 10.0486C9.62698 10.1269 9.60831 10.2044 9.57053 10.273Z" fill="#696974"/>
</svg>
