<svg width="13" height="10" viewBox="0 0 13 10" fill="none" xmlns="http://www.w3.org/2000/svg">
<path d="M11.9399 1.61438C11.8884 1.41277 11.7897 1.2263 11.6519 1.07036C11.5141 0.914422 11.3412 0.793476 11.1475 0.717502C9.27281 -0.00656046 6.28906 2.08028e-06 6.125 2.08028e-06C5.96094 2.08028e-06 2.97719 -0.00656046 1.1025 0.717502C0.908777 0.793476 0.735894 0.914422 0.598114 1.07036C0.460335 1.2263 0.361608 1.41277 0.310078 1.61438C0.168438 2.16016 0 3.15766 0 4.8125C0 6.46735 0.168438 7.46485 0.310078 8.01063C0.361531 8.21233 0.460223 8.39891 0.598007 8.55495C0.735791 8.71099 0.908714 8.83202 1.1025 8.90805C2.89844 9.60094 5.70937 9.625 6.08891 9.625H6.16109C6.54063 9.625 9.3532 9.60094 11.1475 8.90805C11.3413 8.83202 11.5142 8.71099 11.652 8.55495C11.7898 8.39891 11.8885 8.21233 11.9399 8.01063C12.0816 7.46375 12.25 6.46735 12.25 4.8125C12.25 3.15766 12.0816 2.16016 11.9399 1.61438ZM7.90727 5.16906L5.71977 6.70031C5.65433 6.74616 5.57759 6.7732 5.49787 6.77852C5.41815 6.78384 5.3385 6.76723 5.26756 6.73049C5.19661 6.69375 5.13708 6.63828 5.09542 6.5701C5.05376 6.50193 5.03157 6.42365 5.03125 6.34375V3.28125C5.03127 3.20122 5.05325 3.12272 5.09479 3.05431C5.13632 2.9859 5.19583 2.9302 5.26683 2.89326C5.33783 2.85632 5.4176 2.83957 5.49746 2.84482C5.57733 2.85007 5.65422 2.87713 5.71977 2.92305L7.90727 4.4543C7.96481 4.49465 8.01178 4.54827 8.04421 4.61062C8.07664 4.67297 8.09357 4.74222 8.09357 4.8125C8.09357 4.88278 8.07664 4.95203 8.04421 5.01438C8.01178 5.07673 7.96481 5.13035 7.90727 5.17071V5.16906Z" fill="#696974"/>
</svg>
