<?xml version="1.0" encoding="UTF-8"?>
<svg id="Layer_2" data-name="Layer 2" xmlns="http://www.w3.org/2000/svg" viewBox="0 0 188.25 254.65">
  <defs>
    <style>
      .cls-1 {
        fill: #5144ea;
      }
    </style>
  </defs>
  <g id="Layer_1-2" data-name="Layer 1">
    <g>
      <path class="cls-1" d="m184.56,59.03c-15.99,18.03-14.33,45.61,3.7,61.59-18.03-15.99-45.61-14.33-61.59,3.7,15.99-18.03,14.33-45.61-3.7-61.59,18.03,15.99,45.61,14.33,61.59-3.7Z"/>
      <path class="cls-1" d="m39.3,213l-26.92,28.4c-11.3-11.74-16.14-29.58-9.07-46.86,19.94-49.04,29.8-99.61,29.8-153.66,0-11.34-.44-22.82-1.31-34.47L118.84,0c4.06,55.24-63.87,159.77-79.54,213Z"/>
      <path class="cls-1" d="m177.65,167.97l-14.62,86.04c-37.17-6.33-74.87-6.33-112,0-13.7,2.31-26.22-1.83-35.47-9.64l25.96-27.4c28.32-4.28,113.22-52.88,136.12-49Z"/>
    </g>
  </g>
</svg>