<?xml version="1.0" encoding="UTF-8"?>
<svg id="Layer_2" data-name="Layer 2" xmlns="http://www.w3.org/2000/svg" viewBox="0 0 333.09 91.17">
  <defs>
    <style>
      .cls-1 {
        fill: #5144ea;
      }

      .cls-2 {
        fill: #0e1123;
      }
    </style>
  </defs>
  <g id="Layer_1-2" data-name="Layer 1">
    <g>
      <g>
        <path class="cls-2" d="m93.83,11.54h-.19v52.82c0,7.81,6.33,14.14,14.14,14.14h31.03c0-6.67-5.4-12.07-12.07-12.07h-18.77V25.68c0-7.81-6.33-14.14-14.14-14.14Z"/>
        <path class="cls-2" d="m175.4,56.52c0,3.96-.8,6.93-2.4,8.91-1.6,1.98-3.85,2.97-6.74,2.97-2.58,0-4.47-.9-5.66-2.69-1.19-1.79-1.79-4.64-1.79-8.53v-15.09c0-7.81-6.33-14.15-14.15-14.15h0v32.54c0,6.04,1.46,10.74,4.39,14.1,2.92,3.36,6.99,5.05,12.21,5.05,4.78,0,8.58-1.29,11.41-3.87,1.57-1.43,2.82-3.26,3.75-5.46h0c.12,4.56,3.85,8.19,8.41,8.19h4.73V27.95h0c-7.81,0-14.15,6.33-14.15,14.15v14.43Z"/>
        <path class="cls-2" d="m266.41,28.98c-2.52-1.45-5.53-2.17-9.05-2.17-2.58,0-4.9.52-6.98,1.56-2.07,1.04-3.82,2.58-5.23,4.62-.84,1.21-1.51,2.6-2.05,4.13-.92-2.65-2.3-4.87-4.18-6.63-2.61-2.45-6.02-3.68-10.23-3.68-2.39,0-4.59.5-6.6,1.51-2.01,1.01-3.73,2.45-5.14,4.34-.78,1.04-1.43,2.21-1.99,3.49h0c-.18-4.58-3.94-8.2-8.53-8.2h-4.52v50.55h0c7.81,0,14.15-6.33,14.15-14.15v-14.24c0-2.51.31-4.68.94-6.51.63-1.82,1.56-3.21,2.78-4.15,1.23-.94,2.69-1.42,4.39-1.42,2.77,0,4.72,1.04,5.85,3.11,1.13,2.07,1.7,5.06,1.7,8.96v28.39h12.73v-28.39c0-2.58.33-4.76.99-6.56.66-1.79,1.59-3.16,2.78-4.1,1.19-.94,2.64-1.42,4.34-1.42,2.7,0,4.65.99,5.85,2.97,1.19,1.98,1.79,4.95,1.79,8.91v14.43c0,7.81,6.33,14.15,14.15,14.15h0v-32.54c0-4.15-.69-7.65-2.08-10.51-1.38-2.86-3.33-5.01-5.85-6.46Z"/>
        <path class="cls-2" d="m333.09,54.16c0-5.66-1.02-10.53-3.06-14.62-2.04-4.09-4.92-7.23-8.63-9.43-3.71-2.2-8.08-3.3-13.11-3.3s-9.62,1.1-13.39,3.3c-3.77,2.2-6.71,5.27-8.82,9.2-2.11,3.93-3.16,8.57-3.16,13.91s1.05,10,3.16,13.96c2.1,3.96,5.06,7.03,8.86,9.2,3.8,2.17,8.28,3.25,13.44,3.25,6.1,0,11.29-1.41,15.56-4.24,4.27-2.83,7.07-6.76,8.39-11.79l-3.89-.23c-4.9-.29-9.6,1.33-13.74,3.97-.02.01-.03.02-.05.03-1.6,1.01-3.6,1.51-5.99,1.51-3.27,0-5.89-.97-7.87-2.92-1.98-1.95-3.07-4.94-3.25-8.96h32.72c1.56,0,2.83-1.27,2.83-2.83h0Zm-35.56-5.85c.38-3.52,1.52-6.24,3.44-8.16,1.92-1.92,4.35-2.88,7.31-2.88s5.36.91,7.21,2.73c1.85,1.83,2.88,4.59,3.07,8.3h-21.03Z"/>
      </g>
      <g>
        <path class="cls-1" d="m66.07,21.13c-5.72,6.45-5.13,16.33,1.32,22.05-6.45-5.72-16.33-5.13-22.05,1.32,5.72-6.45,5.13-16.33-1.32-22.05,6.45,5.72,16.33,5.13,22.05-1.32Z"/>
        <path class="cls-1" d="m14.07,76.26l-9.64,10.17c-4.05-4.2-5.78-10.59-3.25-16.78,7.14-17.56,10.67-35.66,10.67-55.01,0-4.06-.16-8.17-.47-12.34L42.54,0c1.45,19.77-22.87,57.2-28.47,76.26Z"/>
        <path class="cls-1" d="m63.6,60.14l-5.23,30.8c-13.31-2.26-26.8-2.26-40.1,0-4.9.83-9.39-.66-12.7-3.45l9.29-9.81c10.14-1.53,40.53-18.93,48.73-17.54Z"/>
      </g>
    </g>
  </g>
</svg>